/* XPM */
static char *bitcoin64[] = {
/* columns rows colors chars-per-pixel */
"64 64 223 2 ",
"   c None",
".  c #101E0C",
"X  c #13230D",
"o  c #1A290F",
"O  c #1A2613",
"+  c #1C2C14",
"@  c #182614",
"#  c #1E3214",
"$  c #1F3318",
"%  c #1B320E",
"&  c #222D15",
"*  c #242D19",
"=  c #282D1A",
"-  c #233315",
";  c #253A15",
":  c #2A3C14",
">  c #25341A",
",  c #29361C",
"<  c #263A1A",
"1  c #2B3C1C",
"2  c #2A3616",
"3  c #323D1D",
"4  c #393D14",
"5  c #25360F",
"6  c #252D21",
"7  c #263323",
"8  c #2B3424",
"9  c #2D3C22",
"0  c #2D362B",
"q  c #333E23",
"w  c #3A3D23",
"e  c #323C2C",
"r  c #373927",
"t  c #373E33",
"y  c #2C421C",
"u  c #2D461B",
"i  c #32441D",
"p  c #35491D",
"a  c #3A4C1D",
"s  c #384719",
"d  c #2F4322",
"f  c #344423",
"g  c #3A4525",
"h  c #354A23",
"j  c #3A4C24",
"k  c #364329",
"l  c #3B452B",
"z  c #354929",
"x  c #3C4B2B",
"c  c #3D5224",
"v  c #3D522B",
"b  c #3A4533",
"n  c #3D4B31",
"m  c #3C443C",
"M  c #3E5131",
"N  c #494919",
"B  c #42531B",
"V  c #58561C",
"C  c #584514",
"Z  c #63531B",
"A  c #79581C",
"S  c #644A13",
"D  c #79611D",
"F  c #424C2C",
"G  c #4A4C2D",
"H  c #434729",
"J  c #435325",
"K  c #445924",
"L  c #4A5B24",
"P  c #43542C",
"I  c #4B552E",
"U  c #46592B",
"Y  c #4B5C2C",
"T  c #525A2C",
"R  c #595927",
"E  c #444D32",
"W  c #4B4C34",
"Q  c #464838",
"!  c #514D3A",
"~  c #455333",
"^  c #4A5534",
"/  c #465A31",
"(  c #4C5A35",
")  c #4D543A",
"_  c #4E5C3C",
"`  c #45533A",
"'  c #515535",
"]  c #535B35",
"[  c #53543A",
"{  c #535C3B",
"}  c #5A5D3C",
"|  c #5B5538",
" . c #605F3F",
".. c #695628",
"X. c #4D612D",
"o. c #52642C",
"O. c #56692F",
"+. c #4E6035",
"@. c #4D6038",
"#. c #526233",
"$. c #596334",
"%. c #54623D",
"&. c #5B633D",
"*. c #5A6937",
"=. c #68642B",
"-. c #776527",
";. c #62653E",
":. c #686D3B",
">. c #766937",
",. c #75713E",
"<. c #3D4940",
"1. c #434B43",
"2. c #4D5744",
"3. c #535C43",
"4. c #5B5D42",
"5. c #565849",
"6. c #595C52",
"7. c #605C43",
"8. c #556443",
"9. c #5C6443",
"0. c #5C6A44",
"q. c #5B6449",
"w. c #5D6A4A",
"e. c #566645",
"r. c #5C6358",
"t. c #5E7049",
"y. c #636543",
"u. c #626A45",
"i. c #6A6A46",
"p. c #636C4A",
"a. c #6B6D4B",
"s. c #666448",
"d. c #716E4E",
"f. c #7A6D4F",
"g. c #65714D",
"h. c #6B724C",
"j. c #647345",
"k. c #73724D",
"l. c #626C51",
"z. c #656958",
"x. c #726F51",
"c. c #667353",
"v. c #6C7353",
"b. c #6E7A53",
"n. c #6C7659",
"m. c #6E7B5C",
"M. c #737553",
"N. c #7A7553",
"B. c #747B56",
"V. c #7A7A55",
"C. c #747B5A",
"Z. c #7C7A59",
"A. c #74755B",
"S. c #676B63",
"D. c #776E65",
"F. c #6B7265",
"G. c #73736E",
"H. c #777867",
"J. c #7B7A75",
"K. c #767874",
"L. c #81561B",
"P. c #8A661C",
"I. c #946419",
"U. c #AC741E",
"Y. c #BB751B",
"T. c #AA6E18",
"R. c #876727",
"E. c #996D22",
"W. c #957227",
"Q. c #866936",
"!. c #967236",
"~. c #A46D27",
"^. c #AA7927",
"/. c #B97B27",
"(. c #AE7B39",
"). c #CD7D1A",
"_. c #C57A1A",
"`. c #C57E24",
"'. c #807D77",
"]. c #927B46",
"[. c #7C8176",
"{. c #CD811D",
"}. c #D3811A",
"|. c #DC851C",
" X c #E3891C",
".X c #ED8D1B",
"XX c #E1871A",
"oX c #F18F1A",
"OX c #F1941A",
"+X c #F09A19",
"@X c #C68327",
"#X c #D68623",
"$X c #CB8834",
"%X c #F09228",
"&X c #EE9433",
"*X c #E9912C",
"=X c #A68151",
"-X c #83817C",
";X c #898579",
":X c #7E7F84",
">X c #7E8484",
",X c #7CA5BF",
"<X c #898784",
"1X c #8C8984",
"2X c #8A8B8C",
"3X c #868888",
"4X c #928D8A",
"5X c #8B8F94",
"6X c #8A9599",
"7X c #9B9393",
"8X c #979799",
"9X c #939189",
"0X c #A49C9B",
"qX c #A79E9C",
"wX c #8A9AA3",
"eX c #9C9DA2",
"rX c #91A5B1",
"tX c #A5B5BD",
"yX c #B2A599",
"uX c #80A8C2",
"iX c #ADBECC",
"pX c #BBBEC7",
"aX c #BAC9DA",
/* pixels */
"                                                                                                                                ",
"                                                                                                                                ",
"                                                            +XoXOX+X                                                            ",
"                                                OXOXoXOXoXoXoXoXoXoXoXoXOXOXOXOX                                                ",
"                                          OXOXoXOXoX.X.XOX%X*X&X&X&X%X.XoX%XoXoXoXoXOX                                          ",
"                                      OXoXoXoX.XoX$X~.Q.H.eXaXaXaXaXaXpXyX].`.%XoX.XoXoXOX                                      ",
"                                  OXoXoXoX.X/.A Q 1.m e e r.6XaXaXaXaXwX<.t e t ..T..XoXOXoXoX                                  ",
"                              +XoXoXoX.X^.G 7 8 b E e e t F.iXiXrXiXwX<.0 e t t 0 0 = L.).oXoXoX+X                              ",
"                            OXOXOXoXU.R { &.) ~ Y #.^ z %.@._ / q.2.b k 7 e 0 0 * 6 6 6 = L. X.XoXOX                            ",
"                          OXoXoX}.V i l j ] U / +.O.*.O.#.X.O.O.+.+.` / k k l 0 0 b k 6 @ + r Y.oXoXOX                          ",
"                        OXoXoX/.H h F 9 9 8.z v g.+.Y O.*.X.Y K B Y X.K j.I J #.'  .] t z E q k R..XoXOX                        ",
"                      OXoXoXP.F ( ( ` , ` 3.z j %.e.j U K s a i y c 0.K #.P x #.J :.O.k.h.p.( { y.>.XXoXOX                      ",
"                    OXoXoXR.I 7.~ 9.4.l ) 3.E E ` 8.w.v J P I i : J t.a P f H &.T K a j.%.g.~ y.N.K V |.oXOX                    ",
"                  oXoXoX!.I ;.d.a.u.3.' u.q.{ v.8.8.n.) $.T ] ] j ( 0.@.#._ W s.s.I j g.8.c.~ ( &.H 1 R  XoXOX                  ",
"                OXOXoX(.s.i.a.k.V.M.N. .v.c.h.M.l.p.C.M.k.k.:.;.} &.0.e.g.0.s.i.s.y.( u.e.n.^ 9.i.} ^ y.>..XoXOX                ",
"              +XoXoX`.N.f.Z.k.N.b.k.N.d.u.v.h.C.M.A.Z.k.V.V.B.h.y.d.h.g.v.u.p.a.s.i.I &.p.M.y.M.x.d.N.d.a.Q.oXOX+X              ",
"              OX.X#XN.d.N.N.h.k.v.h.k.h.;.h.b.b.B.C.C.V.].H.[.k.d.N.u.v.a.p.a.i.s.i.} ;.N.a.a.N.N.f.N.Z.a.s./.OXOX              ",
"            OXoX.X].k.h.i.k.p.p.p.h.h.0.u.n.m.m.p.C.M.C.B.m.C.B.].C.B.c.M.a.u.i.d.i.u.9.d.u.k.N.d.d.h.a.u.y.;.#XOXOX            ",
"            oXoX$Xk.x.h.a.a.y.u.p.0.] _ %.p.n.c.p.v.v.c.v.g.c.t.n.n.j.v.v.a.a.} ;.i.;.y.y.;.k.k.i.d.k.a.s.y.7.!.oXoX            ",
"          OXoX.X,.v.y.p.&.] &.i.p.0.] q.e.p.g.g.u.v.p.g.n.l.c.g.p.g.9.w.c.9.&.} } i. .y.y.u.:.k.i.i.M.s.y.&.y.s.#XoXOX          ",
"          oXoX(.*.h.%.c.0.;.&.s.p.y.} c.l.w.0.w.9.a.u.g.n.w.p.9.%.a.q.w.a.{ 9.^ W ' } { &.y.;.k.i.;.i.a.] &.&.} Q.oXoX          ",
"        +XoXOX,.#.b.9.w.0.{ E ' u.) 4.c.c._ *.p.{ *.u.g.l.p.0.{ q.0.0.e.e.{ ` g q G ' &.&.y.} u.i.*.y.;.9.} y.&.y.#XoXOX        ",
"        OXOX@Xu.p.V.0.g.p.( 3.z q.u.} e.8._ %.` _ %.&.0.e.{ ( ~ 9.e.8._ %.8.) ^ G ) ' ] *.} &.&.p.u.u.y.} 9.u.y.s.!.oXOX        ",
"        oX.XW.j.%.j.%.e.#.] ( { 4.4.9._ 3.3._ { { _ ( { ) _ ) ) _ ~ ( ( %.%.( z ~ ] P ^ ] ( u.&.u.y.w.c.' 9.&.{ 9.| oXoX        ",
"      OXoX.X:.p.%.0.( ^ F F { { { } %.{ 3.2.1X-XH.H.l.q.~ ~ x x g x H ` %.w.%.~ ^ ~ ~ ~ } ] &.;.0.c.0.0.{ #.^ / ) W `.oXOX      ",
"      OXoX#X*.0.#.( P P ~ { %.~ ( ) P ^ ( c.qXqX0X8X0X0X7X7X2X'.F.F.z.l._ 0._ 3.~ F x F } 9.} y.&.%.e.@._ ( x ) k g E.oXOX      ",
"      OXoX^._ { ~ v f d x ( ) f z h ~ v / l.1X1X<X<X3X<X9X0X0X0X0X7X0X0X8XrXwX5X:XG.S.z.l.[ ] &.) %.0._ ( P n ~ g z >.oXOX      ",
"      OX.XR.v ~ f 9 k z z ( ( ~ ~ j j d v [.qX8XqXqXqX4X;X-X'.J.'.J.'.<X7X,X,X,X5X7X7X7X4X6.G ( ~ #.8._ ~ x ` l x x I oXoX      ",
"      oXoX>.f x 9 > z v E ) j x F c z h 1 n 6.S.'.4X8XqXqXqX0X0XqX0X7X-XJ.K.G.K.G.'.'.4X9X5.x P { 4.8._ x d 2.x z x l XXoX      ",
"      oX.X..j h k ~ v P j z f f f h d z f , 9 7 F.<.7 k 2.z.G.<X7X0X0X7X7X7X7X7X7X4X<X:Xn.3.` f ~ P e.q.E f ) ( ` E F @XoX      ",
"    +XoX.X%.U P j ( P d f 1 9 x r.[.[.3X6X>XF.r.>Xt * k 9 k 9 x F ` 3.r.F.J.3X7X7X1X4X0XJ.2._ 3.( ~ z q.k n b 8.Q W 4.`.oXOX    ",
"    oXoX.XU U K J P v f k 1 f F z.K.3X6X8XeXeXeX8XwX3XG.z.2.b e Q ~ ~ Q l z 9 f 6.r.r.D.r.t 3.E b n z 8.l z P P E ' W /.oXOX    ",
"    oXoXoXJ j h i z h v z z j j 3 f b Q 5.S.K.3X2X8XeX4X8X8X5X2X[.S.6.2.E b > 9 K.<.6 , 8 w E { ) q l [ F , f ~ f H ! /.oXoX    ",
"    +XoXoXj 2 j 1 f j P ` ~ j f f z l r Q Q 6 8 t 2.S.K.'.2X2X4X8X2X2X3XJ.G.r.r.:X2.* , b , f W ) E ) { E 2.~ x 1 9 ! /.oX+X    ",
"      oXoXR 1 i j j 1 k K P f k z 9 8 H 5.6.8 = = + = Q ! Q 6.S.G.'.3X5XwX5X6X>X:XK.S.5.3.E k q _ n W ( 9 l x F H z l ).oX      ",
"      oXoX=.U v j j z j x f d + > * 3 w 2.6.= , = O & l t = H , l Q 5.6.D.D.6.Q 5.! W Q W ) 3 > k E q E x q q Q r q , |.oX      ",
"      oXoXD i c y z h y h 9 - & - q g w Q [ r - , + , w q & r * = & 3 r 5.! W r t Q G ! [ [ H 1 9 k E ) j z ` F = k w .XoX      ",
"      OXoXI.2 1 2 1 < $ < < # > 9 - 3 q l [ g 1 8 q g g z 1 1 9 , r 3 H | [ r ! H = , G W ' [ ~ ` l F j f F ~ x k k ..oXOX      ",
"      OXoX_.9 1 < < - > < 7 > > q , 2 g 4 r 1 q g f k 2 j ) k z g G G W  .G r W H g H W ^ j ) I n f x f P j x h ~ z R.oXOX      ",
"      OXoX.X] l x 7 f x z k x k q E W | G 3 f q j 1 9 j F ^ 3 F G w g G L | Q r E W W H ^ H j j n d f x ~ f f 9 @.n Y.oX+X      ",
"        OXoX-.x v M x n ` x q ) s.D.H.7.| H 8 j X.Y K P Y I J F g q k i J ( w l l 1 E ^ z F i i j z f v P f d h ( ~ .XoX        ",
"        OXoX@Xy 9 d d / ` { e.q.q.{ a.;XH.a.s.9.K B o.L Y Y Y j i I } } P a x J H E z F h 1 2 g f < z j / h f / %.R.oXOX        ",
"        OXOX.XI / U v / v z z ( u.y.%.p.g.w.a.%.X.X.B X.J Y v I ] Y &.} U c c c j j f , x 7 ~ f i 1 < z / j j @.U $XOXOX        ",
"          OXOXI.h v z ( j v v +.*.P T v v U v Y L c X.c c c j F F ] ) K Y U c u u f c - F x v f z p ; h v U j U =.OXOX          ",
"          OXOX.XT v z v o.O.Y c *.v K y P K P U c U p u a c i j J j @.a a y i i y y h h f ( i H ^ y ; h p +.< a /.oXOX          ",
"            oXoX^.K v c c #.Y U c I K z d f x J j h h y u J ; y j f i p i : 3 s p ; < p I F F ^ H s y 1 j J 5 =.oXOX            ",
"            OXoX.Xo.h u c K J K h U j j z d d j j f < < < j - 1 < g f < y , 2 1 2 j y - M 1 P i a H 1 1 c i : {.oXOX            ",
"              OX.X{.y y y 1 p h s L u h U K j z h 2 1 P B f 1 1 f d < 9 < & > + 9 o j > , x f f f a J 1 j : I.oXOX              ",
"              +XOXoXI.d < - + j c u h s K u p h < % a j p $ c > < 9 h h q > > * & > - i - f p g < a c i v V oXoX+X              ",
"                OXoX.XA > # < x h p j f h i y u y < y u y i p # u # < ; 9 9 q X @ & + X f 3 g : 1 u p s N  XoXOX                ",
"                  OXoX.XC j 8 9 f L B y + 1 > o # y s s a i y < y $ d i p f , O * # > O - 1 2 1 s i u s }.oXOX                  ",
"                    OXoX.XZ 1 - z j y O + X + . - y u c i 5 y % y < < f i < 2 O O X O @ X i i p s i s ).oXOX                    ",
"                      OXoX.X-.z M v / g X > < z j ; u y s - ; # ; u u y y y y i > > O + . 1 y 5 s N ).oXOX                      ",
"                        oXoXOXW.c U L Y x j j u p 1 - ; 3 - f # < y u ; y 1 ; y - O O 3 O & p 5 Z |.OXOX                        ",
"                          OXOXoX@XR c v P v X.h - , $ X - j K y - 3 1 ; 5 < : > - - , - , 2 4 I..XoXOX                          ",
"                            OXoXOX XW.O.X.X.L c K K Y . O y , < 2 L ; > f 1 3 p h # # + & Z }.oXoXOX                            ",
"                              +XOXoXoX|.P.K X.a o.c y + # + > 9 < y < X X i 2 9 - > O C Y.oXoXOX+X                              ",
"                                  +XoXoXOX XT.Z o.d f & < O k - # + # < , - 1 1 N P.).OXoXoX+X                                  ",
"                                      OXoXOXoXoX|.U.D N 3 * , + o + X - 4 S I.)..XoXoXOXoX                                      ",
"                                          OXOXoXOXoXoXoX.X X).)._.).XX.XoXoXoXoXoXOXOX                                          ",
"                                                +XOXOXoXoXoXoXoXoXoXoXoXoXoXOX+X                                                ",
"                                                            +XoXoX+X                                                            ",
"                                                                                                                                ",
"                                                                                                                                "
};
