/* XPM */
static char *bitcoin16[] = {
/* columns rows colors chars-per-pixel */
"16 16 170 2 ",
"   c None",
".  c #1E2C15",
"X  c #233217",
"o  c #28371B",
"O  c #283B19",
"+  c #2A3C1A",
"@  c #2B3F1A",
"#  c #2C3D1A",
"$  c #2C3E1A",
"%  c #2A3B1E",
"&  c #2A3F1C",
"*  c #2D3F1C",
"=  c #2E3E1C",
"-  c #2C3E1F",
";  c #313E21",
":  c #363F23",
">  c #2C401A",
",  c #2D411B",
"<  c #32441E",
"1  c #3D421C",
"2  c #3D491B",
"3  c #334720",
"4  c #334522",
"5  c #344520",
"6  c #344622",
"7  c #364225",
"8  c #344026",
"9  c #374625",
"0  c #3A4125",
"q  c #3A4226",
"w  c #384726",
"e  c #384727",
"r  c #354820",
"t  c #374824",
"y  c #384927",
"u  c #3C4A27",
"i  c #394C25",
"p  c #3B4E26",
"a  c #3D472C",
"s  c #3B492A",
"d  c #3B4A2A",
"f  c #3B4C28",
"g  c #3C4F2B",
"h  c #3C482C",
"j  c #3E4B2D",
"k  c #3E5125",
"l  c #3D5029",
"z  c #494416",
"x  c #4E4516",
"c  c #52481A",
"v  c #54541F",
"b  c #705618",
"n  c #7B621E",
"m  c #42462D",
"M  c #41492E",
"N  c #474F2F",
"B  c #405027",
"V  c #415526",
"C  c #485A27",
"Z  c #445429",
"A  c #41512E",
"S  c #47532E",
"D  c #46572F",
"F  c #495C2C",
"G  c #5E5226",
"H  c #5F5328",
"J  c #404D30",
"K  c #444E33",
"L  c #4B4C33",
"P  c #455330",
"I  c #445332",
"U  c #455431",
"Y  c #475433",
"T  c #465533",
"R  c #4D5533",
"E  c #4A5839",
"W  c #4F5B3A",
"Q  c #545E3B",
"!  c #535D3C",
"~  c #675A25",
"^  c #625D24",
"/  c #6C5D21",
"(  c #665A2F",
")  c #765F25",
"_  c #4F6033",
"`  c #566039",
"'  c #54603A",
"]  c #55623F",
"[  c #59613F",
"{  c #5B613E",
"}  c #5D633E",
"|  c #5E643D",
" . c #676127",
".. c #726326",
"X. c #7D6327",
"o. c #656239",
"O. c #7C6C3D",
"+. c #494D40",
"@. c #545C45",
"#. c #505449",
"$. c #505549",
"%. c #566241",
"&. c #566342",
"*. c #5C6242",
"=. c #5A6440",
"-. c #5D6344",
";. c #5C6544",
":. c #57634E",
">. c #646543",
",. c #606646",
"<. c #646747",
"1. c #636945",
"2. c #606B45",
"3. c #606847",
"4. c #626A46",
"5. c #626A4A",
"6. c #666B48",
"7. c #686B48",
"8. c #6E6E4A",
"9. c #766B41",
"0. c #716F4D",
"q. c #66704F",
"w. c #6C724F",
"e. c #636A57",
"r. c #626758",
"t. c #62675E",
"y. c #60695E",
"u. c #6D7452",
"i. c #6E7654",
"p. c #696B62",
"a. c #686D65",
"s. c #6F716B",
"d. c #727467",
"f. c #737567",
"g. c #72736A",
"h. c #777A6A",
"j. c #6E7F74",
"k. c #7D7D72",
"l. c #82631E",
"z. c #A76F18",
"x. c #B2721D",
"c. c #B77C1B",
"v. c #BA781E",
"b. c #BB7D1E",
"n. c #88642C",
"m. c #96742C",
"M. c #876634",
"N. c #B17C24",
"B. c #BA7E29",
"V. c #8D7741",
"C. c #817F7B",
"Z. c #C7801A",
"A. c #C7811B",
"S. c #D1831B",
"D. c #D2861D",
"F. c #D8871C",
"G. c #EA8F19",
"H. c #EA901A",
"J. c #ED911B",
"K. c #EE901A",
"L. c #EE911A",
"P. c #EF911A",
"I. c #F0921A",
"U. c #C88626",
"Y. c #D38620",
"T. c #D38722",
"R. c #DF8C22",
"E. c #A09277",
"W. c #8D8A85",
"Q. c #B6AA99",
/* pixels */
"                                ",
"        I.v.n.E.Q.M.x.L.        ",
"      F.~ I _ F Y j M H Y.      ",
"    R.9.<.2.5.| ' { ' ;.o.T.    ",
"  I.V.7.2.e.u.i.w.6.,.8.0.O.L.  ",
"  U.2.Q ;.[ { %.@.W R %.2.{ B.  ",
"  m.A Y D h.W.k.f.j.:.@.%.Y X.  ",
"  ..f e :.y.a.e.f.g.E.@.E J (   ",
"  / t t 8 L $.a.g.t.#.a K s G   ",
"  n., % 8 q ; 7 0 L m N s s )   ",
"  b.j I 5.! C Z S B e e 4 l N.  ",
"  L.^ V k f < < 4 + * u 4 v H.  ",
"    S.1 r O > > + o . * 2 Z.    ",
"      D. .i * + > * X z Z.      ",
"        L.c.n c x b z.H.        ",
"                                "
};
