/* XPM */
static char *bitcoin32[] = {
/* columns rows colors chars-per-pixel */
"32 32 181 2 ",
"   c None",
".  c #1C2B14",
"X  c #1D3016",
"o  c #212D16",
"O  c #233316",
"+  c #263916",
"@  c #25311A",
"#  c #29351C",
"$  c #263A19",
"%  c #2B3C1C",
"&  c #2C3D15",
"*  c #333B1C",
"=  c #38331A",
"-  c #2B3525",
";  c #2D3D21",
":  c #2F3B28",
">  c #333D23",
",  c #3B3E24",
"<  c #363D2A",
"1  c #343E31",
"2  c #2D411D",
"3  c #2F481E",
"4  c #32431D",
"5  c #35491E",
"6  c #3A4B1D",
"7  c #2E4022",
"8  c #344423",
"9  c #3A4625",
"0  c #364B21",
"q  c #3A4B25",
"w  c #374429",
"e  c #3A442B",
"r  c #3B4C2A",
"t  c #36482A",
"y  c #3D5123",
"u  c #3C532B",
"i  c #3F4D30",
"p  c #354035",
"a  c #454619",
"s  c #5B5117",
"d  c #695D1D",
"f  c #775719",
"g  c #725C1C",
"h  c #725216",
"j  c #42442C",
"k  c #434D2D",
"l  c #594927",
"z  c #425626",
"x  c #475926",
"c  c #43532B",
"v  c #49562E",
"b  c #465A2B",
"n  c #4A5B2C",
"m  c #585F29",
"M  c #5B5524",
"N  c #434E31",
"B  c #494E35",
"V  c #424D3A",
"C  c #4D4E3F",
"Z  c #455332",
"A  c #4A5435",
"S  c #4D5B34",
"D  c #4C553A",
"F  c #4E5B3A",
"G  c #545C36",
"H  c #53543B",
"J  c #535D3B",
"K  c #595F3C",
"L  c #515237",
"P  c #604D25",
"I  c #685E23",
"U  c #4E612C",
"Y  c #5E602A",
"T  c #4E6138",
"R  c #506233",
"E  c #53613C",
"W  c #5C633E",
"Q  c #5B6033",
"!  c #6E643D",
"~  c #4C5644",
"^  c #525E41",
"/  c #555B4B",
"(  c #55574A",
")  c #545850",
"_  c #5D5E52",
"`  c #605F47",
"'  c #566442",
"]  c #5B6443",
"[  c #5D6A46",
"{  c #5D6B49",
"}  c #586449",
"|  c #5F655F",
" . c #5A6251",
".. c #626542",
"X. c #6E6741",
"o. c #636944",
"O. c #61664B",
"+. c #646D4A",
"@. c #6A6C4B",
"#. c #6D6C47",
"$. c #726D4C",
"%. c #657047",
"&. c #66704D",
"*. c #69714D",
"=. c #73724E",
"-. c #616756",
";. c #65665C",
":. c #696D5B",
">. c #626E50",
",. c #677352",
"<. c #6D7452",
"1. c #6E7B57",
"2. c #737553",
"3. c #757B59",
"4. c #777658",
"5. c #6C6E6A",
"6. c #696B60",
"7. c #6E726B",
"8. c #6C7367",
"9. c #71726A",
"0. c #777772",
"q. c #7F7F74",
"w. c #767D7B",
"e. c #875C16",
"r. c #8A621C",
"t. c #9E6C18",
"y. c #A16816",
"u. c #A26A19",
"i. c #A9731B",
"p. c #B2781F",
"a. c #B7741A",
"s. c #825E20",
"d. c #8A6828",
"f. c #9C6D20",
"g. c #956F2B",
"h. c #9D7527",
"j. c #886730",
"k. c #867538",
"l. c #947335",
"z. c #A93323",
"x. c #AC792A",
"c. c #B57721",
"v. c #BE7E20",
"b. c #BB7E29",
"n. c #B87F35",
"m. c #C57E1D",
"M. c #C87D1D",
"N. c #C17C26",
"B. c #877644",
"V. c #817E77",
"C. c #7F8179",
"Z. c #D1811C",
"A. c #DB871C",
"S. c #E4891B",
"D. c #EC8D1B",
"F. c #F08F1A",
"G. c #F1921A",
"H. c #C58021",
"J. c #C28328",
"K. c #D48927",
"L. c #E58C22",
"P. c #BE8E51",
"I. c #CF9147",
"U. c #D6AA79",
"Y. c #7C8281",
"T. c #848382",
"R. c #8E8985",
"E. c #8D8E8E",
"W. c #878886",
"Q. c #928D8A",
"!. c #918C87",
"~. c #97928E",
"^. c #99938F",
"/. c #809095",
"(. c #8F9498",
"). c #A39C99",
"_. c #829CAC",
"`. c #919EA8",
"'. c #A5B4BF",
"]. c #D6AF86",
"[. c #AEBFCE",
/* pixels */
"                                                                ",
"                          G.G.D.G.G.G.                          ",
"                    G.G.L.N.I.].].].I.L.F.G.                    ",
"                G.G.c.l V 1 ~ '.[.Y.p 1 l t.D.G.                ",
"              G.m.M S A R S R G ' i : : - - = a.G.              ",
"            F.f.c t A t W x x z y T G A G G F N g.D.            ",
"          F.g.! ] H ' J ^ ' n v r T c G G G [ G K d D.          ",
"        F.n.#.<.2.@.@.<.<.2.2.@.W %.&.+...E &.] @.@.l.G.        ",
"      G.K.=.2.@.*.&.+.1.2.3.3.3.4.,.@.o.o.] *.=.$.=.o.b.G.      ",
"      G.B.@.] o.o.E [ *.&.,.,.&.*.@.@.W o.! o.*.#.$...! D.      ",
"    G.J.o.[ ] J ] [ { [ ] +.>.] [ ] ] A k K ] ! ..o.K ` x.G.    ",
"    G.k.%.] E A ` ' ^ F J E J A E F K A A A T [ o.+.K ] X.F.    ",
"    D.[ R Z Z F J A ' ~.W.C.8.-./ ' ' F V p / ' ] ' J Z k K.    ",
"  G.H.A t 9 c Z r r } ^.~.Q.!.Q.R.Q.`._.Y.P.| T F ' c i e z.G.  ",
"  G.x.t 8 u k 9 q 8 8 V 9.6.q.!.).~.W.T.T.T.:.r S ' t D r d.G.  ",
"  G.h.x c q 7 w 8.W.(.Y.w./ V w B ~ / ;.0.V._ F V Z t A B j.G.  ",
"  G.f.5 7 r u q 9 t ( ) 5.T.E.E.T.7. .i 6.@ : N N D r r w j.G.  ",
"  G.z.q y 9 r ; # < ( @ o > e C _ 7.T.5.6.( B > i N w r , s.G.  ",
"  G.a.3 2 % ; X # 8 B * @ > > # # , ~ j , j L k e k t N < f.G.  ",
"    S.9 ; ; 7 ; 9 j , > 8 > k 9 j k L j j N k c w e r 9 Z M.    ",
"    G.I 9 u A F O.:...A n x n c 9 v c 9 9 k 9 4 8 r q q Q G.    ",
"    G.p.u u t c W G K J z x z c v G x y 9 * e q 8 7 c c h.G.    ",
"      D.Y u U b b y 9 c y 3 0 3 9 q 4 4 2 3 k q 0 2 y 6 S.      ",
"      G.H.3 8 y y 8 y 0 8 4 5 # 8 % % O % 2 8 9 9 4 0 t.G.      ",
"        G.r.+ ; 0 5 0 5 + 3 2 & # 2 # @ . O * 4 2 6 g G.        ",
"          F.g # q 2 . . $ 5 4 + 2 3 7 @ . . + 4 5 s D.          ",
"            G.d.u z 2 8 4 & % + 2 2 2 & o o o & g D.            ",
"              G.v.Y b u 5 O $ 4 3 X % % + O * u.G.              ",
"                G.D.i.d z # o % + O + & a e.S.G.                ",
"                    G.G.A.i.r.f h f y.M.G.G.                    ",
"                          G.G.G.G.G.G.                          ",
"                                                                "
};
